<?xml version="1.0" encoding="UTF-8" standalone="no"?>
<!-- Created with Inkscape (http://www.inkscape.org/) -->

<svg
   xmlns:svg="http://www.w3.org/2000/svg"
   xmlns="http://www.w3.org/2000/svg"
   version="1.1"
   width="744.09448"
   height="1052.3622"
   id="svg2">
  <defs
     id="defs4" />
  <g
     id="layer1">
    <path
       d="m 314.28572,220.93361 a 28.571428,28.571428 0 1 1 -57.14285,0 28.571428,28.571428 0 1 1 57.14285,0 z"
       transform="matrix(1.8,0,0,1.8,-250.35716,-219.24688)"
       id="path2818-1"
       style="fill:none;stroke:#000000;stroke-width:2.77777767;stroke-miterlimit:4;stroke-dasharray:none" />
    <path
       d="m 314.28572,220.93361 a 28.571428,28.571428 0 1 1 -57.14285,0 28.571428,28.571428 0 1 1 57.14285,0 z"
       transform="matrix(1.8,0,0,1.8,-60.357159,-219.24688)"
       id="path2818-1-7"
       style="fill:none;stroke:#000000;stroke-width:2.77777767;stroke-miterlimit:4;stroke-dasharray:none" />
    <path
       d="m 314.28572,220.93361 a 28.571428,28.571428 0 1 1 -57.14285,0 28.571428,28.571428 0 1 1 57.14285,0 z"
       transform="matrix(1.8,0,0,1.8,-400.35716,-89.246884)"
       id="path2818-1-0"
       style="fill:none;stroke:#000000;stroke-width:2.77777767;stroke-miterlimit:4;stroke-dasharray:none" />
    <path
       d="m 314.28572,220.93361 a 28.571428,28.571428 0 1 1 -57.14285,0 28.571428,28.571428 0 1 1 57.14285,0 z"
       transform="matrix(1.8,0,0,1.8,-250.35716,40.753116)"
       id="path2818-1-4"
       style="fill:none;stroke:#000000;stroke-width:2.77777767;stroke-miterlimit:4;stroke-dasharray:none" />
    <path
       d="m 314.28572,220.93361 a 28.571428,28.571428 0 1 1 -57.14285,0 28.571428,28.571428 0 1 1 57.14285,0 z"
       transform="matrix(1.8,0,0,1.8,-60.357159,40.753116)"
       id="path2818-1-8"
       style="fill:none;stroke:#000000;stroke-width:2.77777767;stroke-miterlimit:4;stroke-dasharray:none" />
    <path
       d="m 314.28572,220.93361 a 28.571428,28.571428 0 1 1 -57.14285,0 28.571428,28.571428 0 1 1 57.14285,0 z"
       transform="matrix(1.8,0,0,1.8,89.642841,-89.246884)"
       id="path2818-1-45"
       style="fill:none;stroke:#000000;stroke-width:2.77777767;stroke-miterlimit:4;stroke-dasharray:none" />
    <text
       x="89.5"
       y="327.36218"
       id="text2902"
       xml:space="preserve"
       style="font-size:64px;font-style:normal;font-weight:normal;fill:#000000;fill-opacity:1;stroke:none;font-family:Times New Roman;-inkscape-font-specification:Times New Roman"><tspan
         x="89.5"
         y="327.36218"
         id="tspan2904">A</tspan></text>
    <text
       x="243.9375"
       y="457.36218"
       id="text2906"
       xml:space="preserve"
       style="font-size:64px;font-style:normal;font-weight:normal;fill:#000000;fill-opacity:1;stroke:none;font-family:Times New Roman;-inkscape-font-specification:Times New Roman"><tspan
         x="243.9375"
         y="457.36218"
         id="tspan2908">B</tspan></text>
    <text
       x="432.6875"
       y="456.39343"
       id="text2910"
       xml:space="preserve"
       style="font-size:64px;font-style:normal;font-weight:normal;fill:#000000;fill-opacity:1;stroke:none;font-family:Times New Roman;-inkscape-font-specification:Times New Roman"><tspan
         x="432.6875"
         y="456.39343"
         id="tspan2912">C</tspan></text>
    <text
       x="583.90625"
       y="327.36218"
       id="text2914"
       xml:space="preserve"
       style="font-size:64px;font-style:normal;font-weight:normal;fill:#000000;fill-opacity:1;stroke:none;font-family:Times New Roman;-inkscape-font-specification:Times New Roman"><tspan
         x="583.90625"
         y="327.36218"
         id="tspan2916">D</tspan></text>
    <text
       x="433.6875"
       y="199.36218"
       id="text2918"
       xml:space="preserve"
       style="font-size:64px;font-style:normal;font-weight:normal;fill:#000000;fill-opacity:1;stroke:none;font-family:Times New Roman;-inkscape-font-specification:Times New Roman"><tspan
         x="433.6875"
         y="199.36218"
         id="tspan2920">E</tspan></text>
    <text
       x="246.46875"
       y="199.36218"
       id="text2922"
       xml:space="preserve"
       style="font-size:64px;font-style:normal;font-weight:normal;fill:#000000;fill-opacity:1;stroke:none;font-family:Times New Roman;-inkscape-font-specification:Times New Roman"><tspan
         x="246.46875"
         y="199.36218"
         id="tspan2924">F</tspan></text>
    <path
       d="m 151.21033,344.58852 71.96154,60.11977"
       id="path3702"
       style="fill:none;stroke:#000000;stroke-width:5;stroke-linecap:butt;stroke-linejoin:miter;stroke-miterlimit:4;stroke-opacity:1;stroke-dasharray:none" />
    <path
       d="m 316.08425,176.98189 86.53603,0"
       id="path3704"
       style="fill:none;stroke:#000000;stroke-width:5;stroke-linecap:butt;stroke-linejoin:miter;stroke-miterlimit:4;stroke-opacity:1;stroke-dasharray:none" />
    <path
       d="m 315.17334,438.4118 86.53603,0"
       id="path3706"
       style="fill:none;stroke:#000000;stroke-width:5;stroke-linecap:butt;stroke-linejoin:miter;stroke-miterlimit:4;stroke-opacity:1;stroke-dasharray:none" />
    <path
       d="m 496.44356,408.35191 70.13973,-63.76339"
       id="path3710"
       style="fill:none;stroke:#000000;stroke-width:5;stroke-linecap:butt;stroke-linejoin:miter;stroke-miterlimit:4;stroke-opacity:1;stroke-dasharray:none" />
    <path
       d="m 453.63099,228.90351 0,156.67576"
       id="path3718"
       style="fill:none;stroke:#000000;stroke-width:5;stroke-linecap:butt;stroke-linejoin:miter;stroke-miterlimit:4;stroke-opacity:1;stroke-dasharray:none" />
  </g>
</svg>
